<?xml version="1.0" encoding="UTF-8"?><svg id="Layer_1" xmlns="http://www.w3.org/2000/svg" viewBox="0 0 284.83 311.78"><defs><style>.cls-1{fill:#fff;}.cls-2{fill:#1e1d35;}.cls-3{fill:#32ea43;}</style></defs><rect class="cls-2" x="0" y="83.65" width="43.07" height="86.52" rx="21.54" ry="21.54"/><rect class="cls-2" x="17.15" y="34.13" width="8.77" height="60.98"/><circle class="cls-2" cx="22.58" cy="21.06" r="15.47"/><path class="cls-2" d="m266.87,190.23c0,67.13-54.42,121.55-121.55,121.55s-121.55-54.42-121.55-121.55"/><path class="cls-1" d="m266.87,82.15v108.08H23.76v-108.08C23.76,36.8,78.18,0,145.32,0s121.55,36.8,121.55,82.15Z"/><path class="cls-2" d="m189.84,101.08v69.08H34.45v-69.08c0-28.99,34.78-52.51,77.7-52.51s77.7,23.52,77.7,52.51Z"/><rect class="cls-3" x="49.72" y="109.37" width="13.75" height="40.3" rx="6.88" ry="6.88"/><rect class="cls-3" x="112.14" y="109.37" width="13.75" height="40.3" rx="6.88" ry="6.88"/><rect class="cls-2" x="241.76" y="83.65" width="43.07" height="86.52" rx="21.54" ry="21.54"/><rect class="cls-2" x="258.91" y="34.13" width="8.77" height="60.98"/><circle class="cls-2" cx="264.33" cy="21.06" r="15.47"/><path class="cls-3" d="m266.87,190.23c0,19.78-4.72,38.45-13.1,54.93,0,0-10.4-3.01-13.88,5.84-.98,2.47-.11,7.53,1.63,13.52-12.52,16.19-29.02,29.14-48.07,37.36h-.02s2.58-9.76-3.61-18.87c-6.17-9.13-14.23-6.97-20.74-10-6.53-3.05-6.08-16.95-2.61-23.9s18.31-9.47,21.29-12.16c1.05-1.49-7.48-7.15-11.36-7.68-3.85-.56-9.36,2.74-11.56,2.21-2.21-.56-4.45-1.05-2.54-3.65,1.92-2.61,1.98-3.9,1.67-8.24-.31-4.37-3.59-7.84,0-10,3.59-2.18,7.71,3.9,11.61,3.03,3.92-.87,2.18-4.77-.87-5.64-3.03-.87-6.5-7.82-5.21-11.74,1.31-3.9,4.96-4.99,4.96-4.99h92.4Z"/><path class="cls-2" d="m116.21,308.27c-14.08-3.45-27.18-9.36-38.85-17.24l-.42-.29-4.08-2.92h-.02s-.8-16.22,2.21-22.83c2.98-6.59,7.51-5.99,2.09-9.31-5.41-3.3-15.93-4.19-16.82-4.68-.89-.47-3.61-8.22-8.71-11.67-5.1-3.45-11.43-13.08-11.43-13.08-4.19-.6,4.52,8.4,4.81,10.2.31,1.8.31,5.41-3.1,0-3.39-5.39-8.02-7.19-11.63-9.6-.38-.27-.78-.56-1.18-.94-3.45-11.29-5.32-23.28-5.32-35.68h76.8c-.91,3.63-6.62,5.99-8.11,7.48-1.51,1.49-3.61,9.6-3.61,13.52s5.1,8.11,5.1,11.4-3.3,4.21-4.81,2.41c-1.49-1.8-2.41-8.42-8.71-8.42s-7.51,5.41-10.8,10.22c-3.3,4.81,11.4,27.33,14.12,28.53,2.7,1.2.89-1.51,9.31,2.7,8.4,4.21,7.51,18.93,12.3,24.93,4.81,6.01,10.51,7.82,12.03,15.93.6,3.21-.11,6.5-1.18,9.33Z"/><path class="cls-3" d="m116.21,308.27c-14.08-3.45-27.18-9.36-38.85-17.24l-.42-.29-4.08-2.92h-.02s-.8-16.22,2.21-22.83c2.98-6.59,7.51-5.99,2.09-9.31-5.41-3.3-15.93-4.19-16.82-4.68-.89-.47-3.61-8.22-8.71-11.67-5.1-3.45-11.43-13.08-11.43-13.08-4.19-.6,4.52,8.4,4.81,10.2.31,1.8.31,5.41-3.1,0-3.39-5.39-8.02-7.19-11.63-9.6-.38-.27-.78-.56-1.18-.94-3.45-11.29-5.32-23.28-5.32-35.68h76.8c-.91,3.63-6.62,5.99-8.11,7.48-1.51,1.49-3.61,9.6-3.61,13.52s5.1,8.11,5.1,11.4-3.3,4.21-4.81,2.41c-1.49-1.8-2.41-8.42-8.71-8.42s-7.51,5.41-10.8,10.22c-3.3,4.81,11.4,27.33,14.12,28.53,2.7,1.2.89-1.51,9.31,2.7,8.4,4.21,8.72,8.73,13.51,14.72,2.3,2.88,6.54,2.37,8.41,6.91,2.03,4.95,6.12,11.39,6.91,15.62.6,3.21-4.61,10.11-5.68,12.94Z"/></svg>